<svg width="393" height="852" viewBox="0 0 393 852" fill="none" xmlns="http://www.w3.org/2000/svg">
<g clip-path="url(#clip0_44_826)">
<rect width="393" height="852" rx="40" fill="#F9F9F9"/>
<rect width="393" height="34" transform="translate(0 818)" fill="#F9F9F9"/>
<rect x="130" y="839" width="134" height="5" rx="2.5" fill="#131313"/>
<path fill-rule="evenodd" clip-rule="evenodd" d="M336 19C336 16.7909 337.791 15 340 15H354C356.209 15 358 16.7909 358 19V24C358 26.2091 356.209 28 354 28H340C337.791 28 336 26.2091 336 24V19Z" fill="#B2B2B2"/>
<path d="M336 19C336 16.7909 337.791 15 340 15H352V28H340C337.791 28 336 26.2091 336 24V19Z" fill="#131313"/>
<path d="M359 19.8076V23.8656C359.816 23.5219 360.347 22.7224 360.347 21.8366C360.347 20.9508 359.816 20.1513 359 19.8076Z" fill="#B2B2B2"/>
<path d="M341.793 25L344.613 18.62L345.033 19.32H341.263L341.983 18.56V20.46H340.543V18H346.153V19.05L343.553 25H341.793ZM349.869 25.12C349.229 25.12 348.673 24.9867 348.199 24.72C347.733 24.4533 347.373 24.0633 347.119 23.55C346.866 23.0367 346.739 22.4033 346.739 21.65C346.739 20.8433 346.889 20.16 347.189 19.6C347.496 19.04 347.916 18.6133 348.449 18.32C348.989 18.0267 349.609 17.88 350.309 17.88C350.683 17.88 351.039 17.92 351.379 18C351.719 18.08 352.013 18.2 352.259 18.36L351.659 19.55C351.466 19.4167 351.259 19.3267 351.039 19.28C350.819 19.2267 350.589 19.2 350.349 19.2C349.743 19.2 349.263 19.3833 348.909 19.75C348.556 20.1167 348.379 20.66 348.379 21.38C348.379 21.5 348.379 21.6333 348.379 21.78C348.386 21.9267 348.406 22.0733 348.439 22.22L347.989 21.8C348.116 21.54 348.279 21.3233 348.479 21.15C348.679 20.97 348.916 20.8367 349.189 20.75C349.469 20.6567 349.776 20.61 350.109 20.61C350.563 20.61 350.969 20.7 351.329 20.88C351.689 21.06 351.976 21.3133 352.189 21.64C352.409 21.9667 352.519 22.35 352.519 22.79C352.519 23.2633 352.399 23.6767 352.159 24.03C351.926 24.3767 351.609 24.6467 351.209 24.84C350.816 25.0267 350.369 25.12 349.869 25.12ZM349.779 23.91C350.006 23.91 350.206 23.87 350.379 23.79C350.559 23.7033 350.699 23.58 350.799 23.42C350.899 23.26 350.949 23.0767 350.949 22.87C350.949 22.55 350.839 22.2967 350.619 22.11C350.406 21.9167 350.119 21.82 349.759 21.82C349.519 21.82 349.309 21.8667 349.129 21.96C348.949 22.0467 348.806 22.17 348.699 22.33C348.599 22.4833 348.549 22.6633 348.549 22.87C348.549 23.07 348.599 23.25 348.699 23.41C348.799 23.5633 348.939 23.6867 349.119 23.78C349.299 23.8667 349.519 23.91 349.779 23.91Z" fill="white"/>
<path fill-rule="evenodd" clip-rule="evenodd" d="M323.174 17.488C325.545 17.4881 327.826 18.4183 329.545 20.0864C329.675 20.2151 329.881 20.2135 330.009 20.0827L331.246 18.8081C331.311 18.7418 331.347 18.6519 331.346 18.5584C331.346 18.4649 331.309 18.3755 331.243 18.3099C326.732 13.8967 319.614 13.8967 315.103 18.3099C315.038 18.3755 315.001 18.4649 315 18.5584C314.999 18.6518 315.035 18.7417 315.1 18.8081L316.337 20.0827C316.465 20.2137 316.672 20.2153 316.801 20.0864C318.52 18.4182 320.802 17.488 323.174 17.488ZM323.208 21.3359C324.511 21.3359 325.767 21.8303 326.733 22.7231C326.864 22.8498 327.07 22.847 327.197 22.7169L328.433 21.4423C328.498 21.3754 328.534 21.2847 328.533 21.1905C328.532 21.0962 328.494 21.0063 328.428 20.9408C325.486 18.1479 320.931 18.1479 317.99 20.9408C317.923 21.0063 317.886 21.0963 317.885 21.1906C317.884 21.2848 317.92 21.3755 317.985 21.4423L319.221 22.7169C319.348 22.847 319.554 22.8498 319.685 22.7231C320.65 21.8308 321.905 21.3365 323.208 21.3359ZM325.721 23.8238C325.723 23.9183 325.686 24.0094 325.62 24.0756L323.482 26.2777C323.42 26.3425 323.334 26.3789 323.245 26.3789C323.156 26.3789 323.071 26.3425 323.008 26.2777L320.87 24.0756C320.804 24.0093 320.767 23.9182 320.769 23.8237C320.771 23.7292 320.811 23.6397 320.88 23.5763C322.245 22.3976 324.245 22.3976 325.61 23.5763C325.679 23.6397 325.719 23.7293 325.721 23.8238Z" fill="#131313"/>
<path d="M302.615 17.8846C302.615 17.3536 303.046 16.9231 303.577 16.9231H304.538C305.07 16.9231 305.5 17.3536 305.5 17.8846V25.5769C305.5 26.108 305.07 26.5385 304.538 26.5385H303.577C303.046 26.5385 302.615 26.108 302.615 25.5769V17.8846Z" fill="#131313"/>
<path d="M307.423 15.9615C307.423 15.4305 307.854 15 308.385 15H309.346C309.877 15 310.308 15.4305 310.308 15.9615V25.5769C310.308 26.108 309.877 26.5385 309.346 26.5385H308.385C307.854 26.5385 307.423 26.108 307.423 25.5769V15.9615Z" fill="#131313"/>
<path d="M297.808 21.25C297.808 20.719 298.238 20.2885 298.769 20.2885H299.731C300.262 20.2885 300.692 20.719 300.692 21.25V25.5769C300.692 26.108 300.262 26.5385 299.731 26.5385H298.769C298.238 26.5385 297.808 26.108 297.808 25.5769V21.25Z" fill="#131313"/>
<path d="M293 23.6538C293 23.1228 293.43 22.6923 293.962 22.6923H294.923C295.454 22.6923 295.885 23.1228 295.885 23.6538V25.5769C295.885 26.108 295.454 26.5385 294.923 26.5385H293.962C293.43 26.5385 293 26.108 293 25.5769V23.6538Z" fill="#131313"/>
<path d="M52.445 20.565H51.44L51.665 18.135H56.18V16.5H50.015L49.475 22.215H52.01C54.185 22.215 54.83 22.845 54.83 23.85C54.83 24.84 54.005 25.455 52.61 25.455C51.425 25.455 50.285 25.05 49.52 24.42L48.695 25.935C49.655 26.7 51.155 27.15 52.64 27.15C55.46 27.15 56.795 25.62 56.795 23.775C56.795 21.915 55.55 20.565 52.445 20.565ZM58.9248 21.39C59.5998 21.39 60.1548 20.865 60.1548 20.145C60.1548 19.395 59.5998 18.9 58.9248 18.9C58.2498 18.9 57.6948 19.395 57.6948 20.145C57.6948 20.865 58.2498 21.39 58.9248 21.39ZM58.9248 27.105C59.5998 27.105 60.1548 26.58 60.1548 25.86C60.1548 25.11 59.5998 24.615 58.9248 24.615C58.2498 24.615 57.6948 25.11 57.6948 25.86C57.6948 26.58 58.2498 27.105 58.9248 27.105ZM60.7119 16.5V18.135H62.9319V27H64.8819V16.5H60.7119ZM71.2698 20.835L73.8198 17.805V16.5H66.6648V18.135H71.4348L69.0498 20.97V22.305H70.0098C71.5998 22.305 72.2898 22.92 72.2898 23.865C72.2898 24.84 71.4648 25.455 70.0698 25.455C68.8848 25.455 67.7448 25.05 66.9948 24.42L66.1548 25.935C67.1298 26.7 68.6148 27.15 70.0998 27.15C72.9198 27.15 74.2548 25.62 74.2548 23.85C74.2548 22.275 73.2498 21.09 71.2698 20.835Z" fill="#131313"/>
<path d="M33.57 79.9299L27.5 85.9999L33.57 92.0699M44.5 85.9999H27.67" stroke="#131313" stroke-width="1.5" stroke-miterlimit="10" stroke-linecap="round" stroke-linejoin="round"/>
<path d="M63.728 94H60.128V77.92H67.52C69.28 77.92 70.704 78.424 71.792 79.432C72.896 80.44 73.448 81.824 73.448 83.584C73.448 85.344 72.904 86.728 71.816 87.736C70.728 88.728 69.296 89.224 67.52 89.224H63.728V94ZM67.664 81.16H63.728V86.008H67.664C68.512 86.008 69.088 85.84 69.392 85.504C69.712 85.168 69.872 84.528 69.872 83.584C69.872 82.624 69.712 81.984 69.392 81.664C69.088 81.328 68.512 81.16 67.664 81.16ZM78.4278 94.24C77.3078 94.24 76.3958 93.952 75.6918 93.376C74.9878 92.8 74.6358 91.984 74.6358 90.928C74.6358 89.056 75.9158 87.92 78.4758 87.52L82.6038 86.896V86.512C82.6038 85.84 82.4278 85.392 82.0758 85.168C81.7398 84.944 81.1878 84.832 80.4198 84.832C79.6838 84.832 79.1558 84.952 78.8358 85.192C78.5318 85.432 78.3798 85.856 78.3798 86.464V86.728H74.9478V86.464C74.9478 85.024 75.4598 83.872 76.4838 83.008C77.5238 82.128 78.8918 81.688 80.5878 81.688C82.3478 81.688 83.6918 82.144 84.6198 83.056C85.5478 83.952 86.0118 85.216 86.0118 86.848V94H82.6758V92.368H82.5318C81.6198 93.616 80.2518 94.24 78.4278 94.24ZM78.0678 90.64C78.0678 91.216 78.5878 91.504 79.6278 91.504C81.6118 91.504 82.6038 90.752 82.6038 89.248L79.1478 89.776C78.4278 89.888 78.0678 90.176 78.0678 90.64ZM90.3965 98.08C89.6605 98.08 88.9245 97.992 88.1885 97.816V94.84H90.2045C90.6845 94.84 91.0285 94.784 91.2365 94.672C91.4445 94.56 91.6365 94.32 91.8125 93.952L92.0285 93.496L86.9645 81.928H90.9725L92.9405 86.968L93.8045 89.296H94.0685L94.8125 86.968L96.5165 81.928H100.524L95.1485 94.84C94.6365 96.056 94.0205 96.896 93.3005 97.36C92.5805 97.84 91.6125 98.08 90.3965 98.08ZM105.503 94H101.927V81.928H105.263V84.04H105.407C106.143 82.472 107.463 81.688 109.367 81.688C111.303 81.688 112.607 82.472 113.279 84.04H113.399C114.199 82.472 115.567 81.688 117.503 81.688C118.975 81.688 120.071 82.12 120.791 82.984C121.527 83.848 121.895 84.968 121.895 86.344V94H118.295V87.064C118.295 86.216 118.135 85.624 117.815 85.288C117.495 84.952 116.903 84.784 116.039 84.784C115.207 84.784 114.607 84.952 114.239 85.288C113.887 85.608 113.711 86.2 113.711 87.064V94H110.111V87.064C110.111 86.216 109.943 85.624 109.607 85.288C109.287 84.952 108.703 84.784 107.855 84.784C107.023 84.784 106.423 84.952 106.055 85.288C105.687 85.608 105.503 86.184 105.503 87.016V94ZM130.054 94.24C128.038 94.24 126.526 93.696 125.518 92.608C124.51 91.504 124.006 89.968 124.006 88C124.006 86.064 124.55 84.528 125.638 83.392C126.726 82.256 128.206 81.688 130.078 81.688C131.87 81.688 133.278 82.176 134.302 83.152C135.326 84.112 135.838 85.392 135.838 86.992C135.838 87.536 135.782 88.128 135.67 88.768H127.39C127.422 89.616 127.638 90.224 128.038 90.592C128.438 90.944 129.126 91.12 130.102 91.12C131.478 91.12 132.166 90.768 132.166 90.064V89.92H135.718V90.16C135.718 91.44 135.206 92.44 134.182 93.16C133.174 93.88 131.798 94.24 130.054 94.24ZM131.806 85.144C131.406 84.808 130.79 84.64 129.958 84.64C129.126 84.64 128.51 84.8 128.11 85.12C127.726 85.44 127.494 85.928 127.414 86.584H132.382C132.414 85.96 132.222 85.48 131.806 85.144ZM141.619 94H138.043V81.928H141.379V84.04H141.523C142.259 82.472 143.611 81.688 145.579 81.688C147.067 81.688 148.187 82.12 148.939 82.984C149.691 83.848 150.067 84.968 150.067 86.344V94H146.467V87.064C146.467 86.216 146.291 85.624 145.939 85.288C145.603 84.952 144.987 84.784 144.091 84.784C143.211 84.784 142.579 84.96 142.195 85.312C141.811 85.648 141.619 86.264 141.619 87.16V94ZM158.13 94.048C156.53 94.048 155.354 93.736 154.602 93.112C153.85 92.472 153.474 91.448 153.474 90.04V84.904H151.554V81.928H153.57L154.242 79.12H157.074V81.928H160.482V84.904H157.074V89.632C157.074 90.144 157.194 90.472 157.434 90.616C157.674 90.744 158.194 90.808 158.994 90.808H160.482V93.808C159.714 93.968 158.93 94.048 158.13 94.048ZM171.326 94H167.726V77.92H172.79L175.598 85.432L176.894 89.56H177.134L178.406 85.432L181.094 77.92H186.158V94H182.558V86.392L182.75 83.296H182.486L181.55 86.44L179.126 92.896H174.758L172.334 86.44L171.374 83.296H171.134L171.326 86.392V94ZM194.282 94.24C192.266 94.24 190.754 93.696 189.746 92.608C188.738 91.504 188.234 89.968 188.234 88C188.234 86.064 188.778 84.528 189.866 83.392C190.954 82.256 192.434 81.688 194.306 81.688C196.098 81.688 197.506 82.176 198.53 83.152C199.554 84.112 200.066 85.392 200.066 86.992C200.066 87.536 200.01 88.128 199.898 88.768H191.618C191.65 89.616 191.866 90.224 192.266 90.592C192.666 90.944 193.354 91.12 194.33 91.12C195.706 91.12 196.394 90.768 196.394 90.064V89.92H199.946V90.16C199.946 91.44 199.434 92.44 198.41 93.16C197.402 93.88 196.026 94.24 194.282 94.24ZM196.034 85.144C195.634 84.808 195.018 84.64 194.186 84.64C193.354 84.64 192.738 84.8 192.338 85.12C191.954 85.44 191.722 85.928 191.642 86.584H196.61C196.642 85.96 196.45 85.48 196.034 85.144ZM207.745 94.048C206.145 94.048 204.969 93.736 204.217 93.112C203.465 92.472 203.089 91.448 203.089 90.04V84.904H201.169V81.928H203.185L203.857 79.12H206.689V81.928H210.097V84.904H206.689V89.632C206.689 90.144 206.809 90.472 207.049 90.616C207.289 90.744 207.809 90.808 208.609 90.808H210.097V93.808C209.329 93.968 208.545 94.048 207.745 94.048ZM215.89 94H212.314V77.92H215.89V83.8H216.034C216.386 83.192 216.89 82.688 217.546 82.288C218.218 81.888 219.01 81.688 219.922 81.688C221.41 81.688 222.514 82.12 223.234 82.984C223.97 83.848 224.338 84.968 224.338 86.344V94H220.738V87.064C220.738 86.216 220.562 85.624 220.21 85.288C219.874 84.952 219.258 84.784 218.362 84.784C217.482 84.784 216.85 84.96 216.466 85.312C216.082 85.664 215.89 86.288 215.89 87.184V94ZM232.616 94.24C230.68 94.24 229.16 93.68 228.056 92.56C226.968 91.424 226.424 89.896 226.424 87.976C226.424 86.04 226.968 84.512 228.056 83.392C229.16 82.256 230.68 81.688 232.616 81.688C234.536 81.688 236.032 82.256 237.104 83.392C238.192 84.512 238.736 86.04 238.736 87.976C238.736 89.896 238.192 91.424 237.104 92.56C236.032 93.68 234.536 94.24 232.616 94.24ZM232.616 91.072C233.592 91.072 234.272 90.848 234.656 90.4C235.04 89.952 235.232 89.144 235.232 87.976C235.232 86.808 235.04 86 234.656 85.552C234.272 85.088 233.592 84.856 232.616 84.856C231.624 84.856 230.936 85.088 230.552 85.552C230.168 86 229.976 86.808 229.976 87.976C229.976 89.144 230.168 89.952 230.552 90.4C230.936 90.848 231.624 91.072 232.616 91.072ZM245.8 94.24C244.12 94.24 242.824 93.68 241.912 92.56C241.016 91.44 240.568 89.912 240.568 87.976C240.568 86.056 241.032 84.528 241.96 83.392C242.888 82.256 244.168 81.688 245.8 81.688C247.464 81.688 248.632 82.296 249.304 83.512H249.448V77.92H253.024V94H249.688V92.224H249.568C248.928 93.568 247.672 94.24 245.8 94.24ZM244.144 87.976C244.144 89.112 244.336 89.928 244.72 90.424C245.104 90.92 245.8 91.168 246.808 91.168C247.688 91.168 248.344 91 248.776 90.664C249.224 90.312 249.448 89.736 249.448 88.936V86.992C249.448 86.192 249.224 85.624 248.776 85.288C248.344 84.936 247.688 84.76 246.808 84.76C245.8 84.76 245.104 85.008 244.72 85.504C244.336 86 244.144 86.824 244.144 87.976ZM260.964 94.24C257.204 94.24 255.324 92.792 255.324 89.896V89.824H258.756V90.328C258.756 90.76 258.908 91.048 259.212 91.192C259.532 91.336 260.14 91.408 261.036 91.408C261.74 91.408 262.196 91.352 262.404 91.24C262.628 91.128 262.74 90.912 262.74 90.592C262.74 90.272 262.62 90.048 262.38 89.92C262.14 89.792 261.612 89.656 260.796 89.512L258.972 89.176C257.74 88.952 256.82 88.56 256.212 88C255.604 87.424 255.3 86.592 255.3 85.504C255.3 84.352 255.756 83.432 256.668 82.744C257.58 82.04 258.876 81.688 260.556 81.688C262.092 81.688 263.34 82.048 264.3 82.768C265.276 83.472 265.764 84.48 265.764 85.792V86.128H262.332V85.792C262.332 85.36 262.204 85.048 261.948 84.856C261.692 84.664 261.196 84.568 260.46 84.568C259.772 84.568 259.3 84.64 259.044 84.784C258.804 84.928 258.684 85.152 258.684 85.456C258.684 85.744 258.78 85.952 258.972 86.08C259.18 86.208 259.636 86.344 260.34 86.488L262.548 86.944C263.812 87.184 264.724 87.6 265.284 88.192C265.86 88.768 266.148 89.552 266.148 90.544C266.148 91.68 265.692 92.584 264.78 93.256C263.884 93.912 262.612 94.24 260.964 94.24Z" fill="#131313"/>
<rect x="23.5" y="130.5" width="346" height="58" rx="10.5" stroke="#2E76DB"/>
<path d="M39.488 164.16C36.448 164.16 34.608 161.984 34.608 158.64C34.608 155.296 36.448 153.12 39.488 153.12C42.112 153.12 43.888 154.672 43.888 157.104V157.232H42.672V157.104C42.672 155.216 41.664 154.224 39.424 154.224C36.912 154.224 35.808 155.664 35.808 158.64C35.808 161.616 36.912 163.056 39.424 163.056C41.664 163.056 42.672 162.064 42.672 160.176V160.048H43.888V160.176C43.888 162.608 42.112 164.16 39.488 164.16ZM46.868 164H45.716V156H46.756V157.328H46.836C47.092 156.592 47.86 155.936 49.028 155.936C50.66 155.936 51.284 157.104 51.284 158.464V158.912H50.132V158.64C50.132 157.408 49.748 156.928 48.612 156.928C47.38 156.928 46.868 157.488 46.868 158.768V164ZM56.1464 164.16C53.7144 164.16 52.4504 162.448 52.4504 160.048C52.4504 157.648 53.8744 155.936 56.1304 155.936C58.0344 155.936 59.6024 157.088 59.6024 159.424C59.6024 159.792 59.5704 160.144 59.5224 160.368H53.5384C53.5864 162.112 54.2744 163.136 56.1624 163.136C57.7624 163.136 58.4024 162.416 58.4024 161.456V161.36H59.5384V161.472C59.5384 162.992 58.1624 164.16 56.1464 164.16ZM56.0984 156.928C54.3384 156.928 53.6344 157.936 53.5384 159.536H58.5144C58.5784 157.664 57.6504 156.928 56.0984 156.928ZM64.633 164.16C62.409 164.16 61.161 162.544 61.161 160.048C61.161 157.552 62.345 155.936 64.505 155.936C66.025 155.936 67.001 156.736 67.337 157.6V153.28H68.489V164H67.465V162.48H67.401C67.049 163.472 66.121 164.16 64.633 164.16ZM62.313 160.048C62.313 162.464 63.257 163.168 64.825 163.168C66.393 163.168 67.337 162.352 67.337 160.736V159.376C67.337 157.744 66.393 156.928 64.825 156.928C63.273 156.928 62.313 157.632 62.313 160.048ZM71.6859 155.04H70.5499V153.28H71.6859V155.04ZM71.6859 164H70.5499V156H71.6859V164ZM76.6122 164.016C75.1562 164.016 74.3082 163.44 74.3082 161.76V157.088H72.9802V156.096H74.3242L74.5962 154.08H75.4602V156.096H77.9562V157.088H75.4602V161.824C75.4602 162.752 75.8922 162.96 76.9162 162.96H77.9562V163.888C77.6842 163.936 77.1882 164.016 76.6122 164.016ZM87.2905 164.16C84.2505 164.16 82.4105 161.984 82.4105 158.64C82.4105 155.296 84.2505 153.12 87.2905 153.12C89.9145 153.12 91.6905 154.672 91.6905 157.104V157.232H90.4745V157.104C90.4745 155.216 89.4665 154.224 87.2265 154.224C84.7145 154.224 83.6105 155.664 83.6105 158.64C83.6105 161.616 84.7145 163.056 87.2265 163.056C89.4665 163.056 90.4745 162.064 90.4745 160.176V160.048H91.6905V160.176C91.6905 162.608 89.9145 164.16 87.2905 164.16ZM95.6941 164.16C94.2541 164.16 93.1661 163.424 93.1661 162.096C93.1661 160.72 94.1901 160.112 95.9181 159.872L98.7021 159.488V158.912C98.7021 157.52 98.1101 156.96 96.6221 156.96C95.1821 156.96 94.5101 157.52 94.5101 158.784V159.024H93.4061V158.896C93.4061 157.248 94.6701 155.936 96.7181 155.936C98.8301 155.936 99.7901 157.296 99.7901 159.056V164H98.7501V162.544L98.6701 162.528C98.2061 163.44 97.1981 164.16 95.6941 164.16ZM94.2861 162.016C94.2861 162.832 94.7981 163.2 96.0141 163.2C97.3741 163.2 98.7021 162.496 98.7021 160.624V160.352L96.0141 160.736C94.7501 160.912 94.2861 161.168 94.2861 162.016ZM103.022 164H101.87V156H102.91V157.328H102.99C103.246 156.592 104.014 155.936 105.182 155.936C106.814 155.936 107.438 157.104 107.438 158.464V158.912H106.286V158.64C106.286 157.408 105.902 156.928 104.766 156.928C103.534 156.928 103.022 157.488 103.022 158.768V164ZM112.076 164.16C109.852 164.16 108.604 162.544 108.604 160.048C108.604 157.552 109.788 155.936 111.948 155.936C113.468 155.936 114.444 156.736 114.78 157.6V153.28H115.932V164H114.908V162.48H114.844C114.492 163.472 113.564 164.16 112.076 164.16ZM109.756 160.048C109.756 162.464 110.7 163.168 112.268 163.168C113.836 163.168 114.78 162.352 114.78 160.736V159.376C114.78 157.744 113.836 156.928 112.268 156.928C110.716 156.928 109.756 157.632 109.756 160.048Z" fill="#2E76DB"/>
<circle cx="350" cy="159" r="8.5" fill="white" stroke="#2E76DB"/>
<circle cx="350" cy="159" r="5" fill="#2E76DB"/>
<rect x="24.5" y="208.5" width="344" height="56" rx="9.5" stroke="#E9E8F8"/>
<path d="M36.144 241V236.456H41.936V235.4H36.144V231.32H42.176V230.28H35.008V241H36.144ZM45.8135 241.16C47.3175 241.16 48.3255 240.44 48.7895 239.528L48.8695 239.544V241H49.9095V236.056C49.9095 234.296 48.9495 232.936 46.8375 232.936C44.7895 232.936 43.5255 234.248 43.5255 235.896V236.024H44.6295V235.784C44.6295 234.52 45.3015 233.96 46.7415 233.96C48.2295 233.96 48.8215 234.52 48.8215 235.912V236.488L46.0375 236.872C44.3095 237.112 43.2855 237.72 43.2855 239.096C43.2855 240.424 44.3735 241.16 45.8135 241.16ZM44.4055 239.016C44.4055 238.168 44.8695 237.912 46.1335 237.736L48.8215 237.352V237.624C48.8215 239.496 47.4935 240.2 46.1335 240.2C44.9175 240.2 44.4055 239.832 44.4055 239.016ZM54.5715 241L56.3635 236.008L56.9555 234.136H57.0515L57.6435 236.008L59.4195 241H60.9235L62.9555 233.096H61.7715L60.5235 238.248L60.2035 239.96H60.1075L59.6115 238.248L57.7715 233.096H56.2515L54.4435 238.248L53.9155 239.96H53.8195L53.4995 238.248L52.2515 233.096H51.0355L53.0675 241H54.5715ZM65.4299 241V235.768C65.4299 234.488 65.9419 233.928 67.1739 233.928C68.3099 233.928 68.6939 234.408 68.6939 235.64V235.912H69.8459V235.464C69.8459 234.104 69.2219 232.936 67.5899 232.936C66.4219 232.936 65.6539 233.592 65.3979 234.328H65.3179V233H64.2779V241H65.4299ZM72.405 243.72C73.269 243.72 74.021 243.464 74.533 242.264L78.389 233.096H77.141L75.397 237.496L74.613 239.432H74.517L73.685 237.496L71.829 233.096H70.581L73.973 240.888L73.525 241.912C73.237 242.536 72.997 242.68 72.277 242.68H71.381V243.608C71.605 243.656 72.021 243.72 72.405 243.72Z" fill="#131313"/>
<circle cx="350" cy="236" r="8.5" fill="white" stroke="#8E8EA9"/>
<rect x="24" y="285" width="345" height="60" rx="10" fill="#2E76DB"/>
<path d="M180.288 321V312.234H180.414L181.728 314.196L186.282 321H188.37V308.94H186.426V317.778H186.282L185.004 315.852L180.432 308.94H178.344V321H180.288ZM194.476 321.18C196.888 321.18 198.49 319.992 198.49 318.156V317.994H196.564V318.138C196.564 318.948 195.988 319.452 194.494 319.452C192.622 319.452 192.028 318.624 191.956 316.986H198.454C198.508 316.716 198.562 316.23 198.562 315.762C198.562 313.314 196.87 311.874 194.458 311.874C191.794 311.874 190.138 313.746 190.138 316.518C190.138 319.308 191.524 321.18 194.476 321.18ZM194.422 313.512C195.952 313.512 196.78 314.16 196.708 315.69H191.974C192.082 314.304 192.73 313.512 194.422 313.512ZM201.366 321L203.76 317.58H203.886L206.298 321H208.566L205.362 316.59V316.446L208.566 312.054H206.37L203.976 315.366H203.85L201.438 312.054H199.17L202.374 316.374V316.5L199.17 321H201.366ZM213.682 321C214.294 321 214.906 320.928 215.284 320.838V319.254H214.186C212.98 319.254 212.584 319.092 212.584 318.156V313.674H215.284V312.054H212.584V309.84H211.09L210.676 312.054H209.146V313.674H210.64V318.246C210.64 320.262 211.684 321 213.682 321Z" fill="white"/>
</g>
<defs>
<clipPath id="clip0_44_826">
<rect width="393" height="852" rx="40" fill="white"/>
</clipPath>
</defs>
</svg>
