<svg width="393" height="852" viewBox="0 0 393 852" fill="none" xmlns="http://www.w3.org/2000/svg">
<g clip-path="url(#clip0_52_851)">
<rect width="393" height="852" rx="40" fill="#F9F9F9"/>
<rect width="393" height="34" transform="translate(0 818)" fill="#F9F9F9"/>
<rect x="130" y="839" width="134" height="5" rx="2.5" fill="#131313"/>
<path fill-rule="evenodd" clip-rule="evenodd" d="M336 19C336 16.7909 337.791 15 340 15H354C356.209 15 358 16.7909 358 19V24C358 26.2091 356.209 28 354 28H340C337.791 28 336 26.2091 336 24V19Z" fill="#B2B2B2"/>
<path d="M336 19C336 16.7909 337.791 15 340 15H352V28H340C337.791 28 336 26.2091 336 24V19Z" fill="#131313"/>
<path d="M359 19.8076V23.8656C359.816 23.5219 360.347 22.7224 360.347 21.8366C360.347 20.9508 359.816 20.1513 359 19.8076Z" fill="#B2B2B2"/>
<path d="M341.793 25L344.613 18.62L345.033 19.32H341.263L341.983 18.56V20.46H340.543V18H346.153V19.05L343.553 25H341.793ZM349.869 25.12C349.229 25.12 348.673 24.9867 348.199 24.72C347.733 24.4533 347.373 24.0633 347.119 23.55C346.866 23.0367 346.739 22.4033 346.739 21.65C346.739 20.8433 346.889 20.16 347.189 19.6C347.496 19.04 347.916 18.6133 348.449 18.32C348.989 18.0267 349.609 17.88 350.309 17.88C350.683 17.88 351.039 17.92 351.379 18C351.719 18.08 352.013 18.2 352.259 18.36L351.659 19.55C351.466 19.4167 351.259 19.3267 351.039 19.28C350.819 19.2267 350.589 19.2 350.349 19.2C349.743 19.2 349.263 19.3833 348.909 19.75C348.556 20.1167 348.379 20.66 348.379 21.38C348.379 21.5 348.379 21.6333 348.379 21.78C348.386 21.9267 348.406 22.0733 348.439 22.22L347.989 21.8C348.116 21.54 348.279 21.3233 348.479 21.15C348.679 20.97 348.916 20.8367 349.189 20.75C349.469 20.6567 349.776 20.61 350.109 20.61C350.563 20.61 350.969 20.7 351.329 20.88C351.689 21.06 351.976 21.3133 352.189 21.64C352.409 21.9667 352.519 22.35 352.519 22.79C352.519 23.2633 352.399 23.6767 352.159 24.03C351.926 24.3767 351.609 24.6467 351.209 24.84C350.816 25.0267 350.369 25.12 349.869 25.12ZM349.779 23.91C350.006 23.91 350.206 23.87 350.379 23.79C350.559 23.7033 350.699 23.58 350.799 23.42C350.899 23.26 350.949 23.0767 350.949 22.87C350.949 22.55 350.839 22.2967 350.619 22.11C350.406 21.9167 350.119 21.82 349.759 21.82C349.519 21.82 349.309 21.8667 349.129 21.96C348.949 22.0467 348.806 22.17 348.699 22.33C348.599 22.4833 348.549 22.6633 348.549 22.87C348.549 23.07 348.599 23.25 348.699 23.41C348.799 23.5633 348.939 23.6867 349.119 23.78C349.299 23.8667 349.519 23.91 349.779 23.91Z" fill="white"/>
<path fill-rule="evenodd" clip-rule="evenodd" d="M323.174 17.488C325.545 17.4881 327.826 18.4183 329.545 20.0864C329.675 20.2151 329.881 20.2135 330.009 20.0827L331.246 18.8081C331.311 18.7418 331.347 18.6519 331.346 18.5584C331.346 18.4649 331.309 18.3755 331.243 18.3099C326.732 13.8967 319.614 13.8967 315.103 18.3099C315.038 18.3755 315.001 18.4649 315 18.5584C314.999 18.6518 315.035 18.7417 315.1 18.8081L316.337 20.0827C316.465 20.2137 316.672 20.2153 316.801 20.0864C318.52 18.4182 320.802 17.488 323.174 17.488ZM323.208 21.3359C324.511 21.3359 325.767 21.8303 326.733 22.7231C326.864 22.8498 327.07 22.847 327.197 22.7169L328.433 21.4423C328.498 21.3754 328.534 21.2847 328.533 21.1905C328.532 21.0962 328.494 21.0063 328.428 20.9408C325.486 18.1479 320.931 18.1479 317.99 20.9408C317.923 21.0063 317.886 21.0963 317.885 21.1906C317.884 21.2848 317.92 21.3755 317.985 21.4423L319.221 22.7169C319.348 22.847 319.554 22.8498 319.685 22.7231C320.65 21.8308 321.905 21.3365 323.208 21.3359ZM325.721 23.8238C325.723 23.9183 325.686 24.0094 325.62 24.0756L323.482 26.2777C323.42 26.3425 323.334 26.3789 323.245 26.3789C323.156 26.3789 323.071 26.3425 323.008 26.2777L320.87 24.0756C320.804 24.0093 320.767 23.9182 320.769 23.8237C320.771 23.7292 320.811 23.6397 320.88 23.5763C322.245 22.3976 324.245 22.3976 325.61 23.5763C325.679 23.6397 325.719 23.7293 325.721 23.8238Z" fill="#131313"/>
<path d="M302.615 17.8846C302.615 17.3536 303.046 16.9231 303.577 16.9231H304.538C305.07 16.9231 305.5 17.3536 305.5 17.8846V25.5769C305.5 26.108 305.07 26.5385 304.538 26.5385H303.577C303.046 26.5385 302.615 26.108 302.615 25.5769V17.8846Z" fill="#131313"/>
<path d="M307.423 15.9615C307.423 15.4305 307.854 15 308.385 15H309.346C309.877 15 310.308 15.4305 310.308 15.9615V25.5769C310.308 26.108 309.877 26.5385 309.346 26.5385H308.385C307.854 26.5385 307.423 26.108 307.423 25.5769V15.9615Z" fill="#131313"/>
<path d="M297.808 21.25C297.808 20.719 298.238 20.2885 298.769 20.2885H299.731C300.262 20.2885 300.692 20.719 300.692 21.25V25.5769C300.692 26.108 300.262 26.5385 299.731 26.5385H298.769C298.238 26.5385 297.808 26.108 297.808 25.5769V21.25Z" fill="#131313"/>
<path d="M293 23.6538C293 23.1228 293.43 22.6923 293.962 22.6923H294.923C295.454 22.6923 295.885 23.1228 295.885 23.6538V25.5769C295.885 26.108 295.454 26.5385 294.923 26.5385H293.962C293.43 26.5385 293 26.108 293 25.5769V23.6538Z" fill="#131313"/>
<path d="M52.64 27.15C51.9 27.15 51.175 27.045 50.465 26.835C49.765 26.615 49.175 26.315 48.695 25.935L49.52 24.42C49.9 24.73 50.36 24.98 50.9 25.17C51.45 25.36 52.02 25.455 52.61 25.455C53.3 25.455 53.84 25.31 54.23 25.02C54.63 24.73 54.83 24.34 54.83 23.85C54.83 23.52 54.745 23.23 54.575 22.98C54.415 22.73 54.125 22.54 53.705 22.41C53.295 22.28 52.73 22.215 52.01 22.215H49.475L50.015 16.5H56.18V18.135H50.735L51.755 17.205L51.35 21.48L50.33 20.565H52.445C53.485 20.565 54.32 20.705 54.95 20.985C55.59 21.255 56.055 21.635 56.345 22.125C56.645 22.605 56.795 23.155 56.795 23.775C56.795 24.385 56.645 24.945 56.345 25.455C56.045 25.965 55.585 26.375 54.965 26.685C54.355 26.995 53.58 27.15 52.64 27.15ZM58.9248 21.39C58.5848 21.39 58.2948 21.275 58.0548 21.045C57.8148 20.805 57.6948 20.505 57.6948 20.145C57.6948 19.765 57.8148 19.465 58.0548 19.245C58.2948 19.015 58.5848 18.9 58.9248 18.9C59.2648 18.9 59.5548 19.015 59.7948 19.245C60.0348 19.465 60.1548 19.765 60.1548 20.145C60.1548 20.505 60.0348 20.805 59.7948 21.045C59.5548 21.275 59.2648 21.39 58.9248 21.39ZM58.9248 27.105C58.5848 27.105 58.2948 26.99 58.0548 26.76C57.8148 26.52 57.6948 26.22 57.6948 25.86C57.6948 25.48 57.8148 25.18 58.0548 24.96C58.2948 24.73 58.5848 24.615 58.9248 24.615C59.2648 24.615 59.5548 24.73 59.7948 24.96C60.0348 25.18 60.1548 25.48 60.1548 25.86C60.1548 26.22 60.0348 26.52 59.7948 26.76C59.5548 26.99 59.2648 27.105 58.9248 27.105ZM62.9319 27V17.25L63.7869 18.135H60.7119V16.5H64.8819V27H62.9319ZM70.0998 27.15C69.3598 27.15 68.6348 27.045 67.9248 26.835C67.2248 26.615 66.6348 26.315 66.1548 25.935L66.9948 24.42C67.3748 24.73 67.8348 24.98 68.3748 25.17C68.9148 25.36 69.4798 25.455 70.0698 25.455C70.7698 25.455 71.3148 25.315 71.7048 25.035C72.0948 24.745 72.2898 24.355 72.2898 23.865C72.2898 23.385 72.1098 23.005 71.7498 22.725C71.3898 22.445 70.8098 22.305 70.0098 22.305H69.0498V20.97L72.0498 17.4L72.3048 18.135H66.6648V16.5H73.8198V17.805L70.8198 21.375L69.7998 20.775H70.3848C71.6748 20.775 72.6398 21.065 73.2798 21.645C73.9298 22.215 74.2548 22.95 74.2548 23.85C74.2548 24.44 74.1048 24.985 73.8048 25.485C73.5048 25.985 73.0448 26.39 72.4248 26.7C71.8148 27 71.0398 27.15 70.0998 27.15Z" fill="#131313"/>
<path d="M33.57 79.9299L27.5 85.9999L33.57 92.0699M44.5 85.9999H27.67" stroke="#131313" stroke-width="1.5" stroke-miterlimit="10" stroke-linecap="round" stroke-linejoin="round"/>
<path d="M63.728 94V89.224H67.52C70.976 89.224 73.448 87.184 73.448 83.584C73.448 80.008 70.976 77.92 67.52 77.92H60.128V94H63.728ZM67.664 81.16C69.32 81.16 69.872 81.64 69.872 83.584C69.872 85.504 69.32 86.008 67.664 86.008H63.728V81.16H67.664ZM78.4278 94.24C80.6598 94.24 81.8838 93.256 82.5318 92.368H82.6758V94H86.0118V86.848C86.0118 83.632 84.1398 81.688 80.5878 81.688C77.1798 81.688 74.9478 83.584 74.9478 86.464V86.728H78.3798V86.464C78.3798 85.24 78.9558 84.832 80.4198 84.832C81.8358 84.832 82.6038 85.096 82.6038 86.512V86.896L78.4758 87.52C75.9798 87.904 74.6358 89.056 74.6358 90.928C74.6358 93.112 76.2918 94.24 78.4278 94.24ZM78.0678 90.64C78.0678 90.136 78.4038 89.896 79.1478 89.776L82.6038 89.248C82.6038 91.12 81.0918 91.504 79.6278 91.504C78.5718 91.504 78.0678 91.288 78.0678 90.64ZM90.3965 98.08C92.7725 98.08 94.1165 97.312 95.1485 94.84L100.524 81.928H96.5165L94.8125 86.968L94.0685 89.296H93.8045L92.9405 86.968L90.9725 81.928H86.9645L92.0285 93.496L91.8125 93.952C91.4525 94.72 91.1165 94.84 90.2045 94.84H88.1885V97.816C88.6925 97.936 89.5805 98.08 90.3965 98.08ZM105.503 94V87.016C105.503 85.312 106.223 84.784 107.855 84.784C109.583 84.784 110.111 85.384 110.111 87.064V94H113.711V87.064C113.711 85.312 114.407 84.784 116.039 84.784C117.791 84.784 118.295 85.384 118.295 87.064V94H121.895V86.344C121.895 83.776 120.623 81.688 117.503 81.688C115.271 81.688 114.071 82.72 113.399 84.04H113.279C112.679 82.624 111.431 81.688 109.367 81.688C107.303 81.688 106.055 82.672 105.407 84.04H105.263V81.928H101.927V94H105.503ZM130.054 94.24C133.51 94.24 135.718 92.728 135.718 90.16V89.92H132.166V90.064C132.166 90.808 131.542 91.12 130.102 91.12C128.134 91.12 127.462 90.448 127.39 88.768H135.67C135.742 88.36 135.838 87.664 135.838 86.992C135.838 83.848 133.702 81.688 130.078 81.688C126.31 81.688 124.006 84.136 124.006 88C124.006 91.816 125.902 94.24 130.054 94.24ZM129.958 84.64C131.638 84.64 132.454 85.336 132.382 86.584H127.414C127.558 85.312 128.23 84.64 129.958 84.64ZM141.619 94V87.16C141.619 85.336 142.363 84.784 144.091 84.784C145.915 84.784 146.467 85.384 146.467 87.064V94H150.067V86.344C150.067 83.776 148.723 81.688 145.579 81.688C143.467 81.688 142.171 82.672 141.523 84.04H141.379V81.928H138.043V94H141.619ZM158.13 94.048C158.97 94.048 159.906 93.928 160.482 93.808V90.808H158.994C157.434 90.808 157.074 90.688 157.074 89.632V84.904H160.482V81.928H157.074V79.12H154.242L153.57 81.928H151.554V84.904H153.474V90.04C153.474 92.896 154.986 94.048 158.13 94.048ZM171.326 94V86.392L171.134 83.296H171.374L172.334 86.44L174.758 92.896H179.126L181.55 86.44L182.486 83.296H182.75L182.558 86.392V94H186.158V77.92H181.094L178.406 85.432L177.134 89.56H176.894L175.598 85.432L172.79 77.92H167.726V94H171.326ZM194.282 94.24C197.738 94.24 199.946 92.728 199.946 90.16V89.92H196.394V90.064C196.394 90.808 195.77 91.12 194.33 91.12C192.362 91.12 191.69 90.448 191.618 88.768H199.898C199.97 88.36 200.066 87.664 200.066 86.992C200.066 83.848 197.93 81.688 194.306 81.688C190.538 81.688 188.234 84.136 188.234 88C188.234 91.816 190.13 94.24 194.282 94.24ZM194.186 84.64C195.866 84.64 196.682 85.336 196.61 86.584H191.642C191.786 85.312 192.458 84.64 194.186 84.64ZM207.745 94.048C208.585 94.048 209.521 93.928 210.097 93.808V90.808H208.609C207.049 90.808 206.689 90.688 206.689 89.632V84.904H210.097V81.928H206.689V79.12H203.857L203.185 81.928H201.169V84.904H203.089V90.04C203.089 92.896 204.601 94.048 207.745 94.048ZM215.89 94V87.184C215.89 85.36 216.634 84.784 218.362 84.784C220.186 84.784 220.738 85.384 220.738 87.064V94H224.338V86.344C224.338 83.776 223.042 81.688 219.922 81.688C218.002 81.688 216.682 82.672 216.034 83.8H215.89V77.92H212.314V94H215.89ZM232.616 94.24C236.48 94.24 238.736 91.792 238.736 87.976C238.736 84.136 236.48 81.688 232.616 81.688C228.728 81.688 226.424 84.136 226.424 87.976C226.424 91.792 228.728 94.24 232.616 94.24ZM232.616 91.072C230.648 91.072 229.976 90.304 229.976 87.976C229.976 85.624 230.648 84.856 232.616 84.856C234.56 84.856 235.232 85.624 235.232 87.976C235.232 90.304 234.56 91.072 232.616 91.072ZM245.8 94.24C247.576 94.24 248.944 93.52 249.568 92.224H249.688V94H253.024V77.92H249.448V83.512H249.304C248.752 82.504 247.648 81.688 245.8 81.688C242.512 81.688 240.568 84.16 240.568 87.976C240.568 91.768 242.392 94.24 245.8 94.24ZM244.144 87.976C244.144 85.768 244.72 84.76 246.808 84.76C248.512 84.76 249.448 85.36 249.448 86.992V88.936C249.448 90.568 248.512 91.168 246.808 91.168C244.72 91.168 244.144 90.16 244.144 87.976ZM260.964 94.24C264.3 94.24 266.148 92.8 266.148 90.544C266.148 88.576 265.092 87.424 262.548 86.944L260.34 86.488C258.9 86.2 258.684 86.032 258.684 85.456C258.684 84.88 259.02 84.568 260.46 84.568C261.996 84.568 262.332 85 262.332 85.792V86.128H265.764V85.792C265.764 83.08 263.508 81.688 260.556 81.688C257.124 81.688 255.3 83.272 255.3 85.504C255.3 87.736 256.596 88.744 258.972 89.176L260.796 89.512C262.404 89.8 262.74 89.944 262.74 90.592C262.74 91.192 262.5 91.408 261.036 91.408C259.284 91.408 258.756 91.216 258.756 90.328V89.824H255.324V89.896C255.324 92.824 257.172 94.24 260.964 94.24Z" fill="#131313"/>
<rect x="24.5" y="131.5" width="344" height="56" rx="9.5" stroke="#E9E8F8"/>
<path d="M39.488 164.16C42.112 164.16 43.888 162.608 43.888 160.176V160.048H42.672V160.176C42.672 162.064 41.664 163.056 39.424 163.056C36.912 163.056 35.808 161.616 35.808 158.64C35.808 155.664 36.912 154.224 39.424 154.224C41.664 154.224 42.672 155.216 42.672 157.104V157.232H43.888V157.104C43.888 154.672 42.112 153.12 39.488 153.12C36.448 153.12 34.608 155.296 34.608 158.64C34.608 161.984 36.448 164.16 39.488 164.16ZM46.868 164V158.768C46.868 157.488 47.38 156.928 48.612 156.928C49.748 156.928 50.132 157.408 50.132 158.64V158.912H51.284V158.464C51.284 157.104 50.66 155.936 49.028 155.936C47.86 155.936 47.092 156.592 46.836 157.328H46.756V156H45.716V164H46.868ZM56.1464 164.16C58.1624 164.16 59.5384 162.992 59.5384 161.472V161.36H58.4024V161.456C58.4024 162.416 57.7624 163.136 56.1624 163.136C54.2744 163.136 53.5864 162.112 53.5384 160.368H59.5224C59.5704 160.144 59.6024 159.792 59.6024 159.424C59.6024 157.088 58.0344 155.936 56.1304 155.936C53.8744 155.936 52.4504 157.648 52.4504 160.048C52.4504 162.448 53.7144 164.16 56.1464 164.16ZM56.0984 156.928C57.6504 156.928 58.5784 157.664 58.5144 159.536H53.5384C53.6344 157.936 54.3384 156.928 56.0984 156.928ZM64.633 164.16C66.121 164.16 67.049 163.472 67.401 162.48H67.465V164H68.489V153.28H67.337V157.6C67.001 156.736 66.025 155.936 64.505 155.936C62.345 155.936 61.161 157.552 61.161 160.048C61.161 162.544 62.409 164.16 64.633 164.16ZM62.313 160.048C62.313 157.632 63.273 156.928 64.825 156.928C66.393 156.928 67.337 157.744 67.337 159.376V160.736C67.337 162.352 66.393 163.168 64.825 163.168C63.257 163.168 62.313 162.464 62.313 160.048ZM71.6859 155.04V153.28H70.5499V155.04H71.6859ZM71.6859 164V156H70.5499V164H71.6859ZM76.6122 164.016C77.1882 164.016 77.6842 163.936 77.9562 163.888V162.96H76.9162C75.8922 162.96 75.4602 162.752 75.4602 161.824V157.088H77.9562V156.096H75.4602V154.08H74.5962L74.3242 156.096H72.9802V157.088H74.3082V161.76C74.3082 163.44 75.1562 164.016 76.6122 164.016ZM87.2905 164.16C89.9145 164.16 91.6905 162.608 91.6905 160.176V160.048H90.4745V160.176C90.4745 162.064 89.4665 163.056 87.2265 163.056C84.7145 163.056 83.6105 161.616 83.6105 158.64C83.6105 155.664 84.7145 154.224 87.2265 154.224C89.4665 154.224 90.4745 155.216 90.4745 157.104V157.232H91.6905V157.104C91.6905 154.672 89.9145 153.12 87.2905 153.12C84.2505 153.12 82.4105 155.296 82.4105 158.64C82.4105 161.984 84.2505 164.16 87.2905 164.16ZM95.6941 164.16C97.1981 164.16 98.2061 163.44 98.6701 162.528L98.7501 162.544V164H99.7901V159.056C99.7901 157.296 98.8301 155.936 96.7181 155.936C94.6701 155.936 93.4061 157.248 93.4061 158.896V159.024H94.5101V158.784C94.5101 157.52 95.1821 156.96 96.6221 156.96C98.1101 156.96 98.7021 157.52 98.7021 158.912V159.488L95.9181 159.872C94.1901 160.112 93.1661 160.72 93.1661 162.096C93.1661 163.424 94.2541 164.16 95.6941 164.16ZM94.2861 162.016C94.2861 161.168 94.7501 160.912 96.0141 160.736L98.7021 160.352V160.624C98.7021 162.496 97.3741 163.2 96.0141 163.2C94.7981 163.2 94.2861 162.832 94.2861 162.016ZM103.022 164V158.768C103.022 157.488 103.534 156.928 104.766 156.928C105.902 156.928 106.286 157.408 106.286 158.64V158.912H107.438V158.464C107.438 157.104 106.814 155.936 105.182 155.936C104.014 155.936 103.246 156.592 102.99 157.328H102.91V156H101.87V164H103.022ZM112.076 164.16C113.564 164.16 114.492 163.472 114.844 162.48H114.908V164H115.932V153.28H114.78V157.6C114.444 156.736 113.468 155.936 111.948 155.936C109.788 155.936 108.604 157.552 108.604 160.048C108.604 162.544 109.852 164.16 112.076 164.16ZM109.756 160.048C109.756 157.632 110.716 156.928 112.268 156.928C113.836 156.928 114.78 157.744 114.78 159.376V160.736C114.78 162.352 113.836 163.168 112.268 163.168C110.7 163.168 109.756 162.464 109.756 160.048Z" fill="#131313"/>
<circle cx="350" cy="159" r="8.5" fill="white" stroke="#8E8EA9"/>
<rect x="24.5" y="208.5" width="344" height="56" rx="9.5" stroke="#E9E8F8"/>
<path d="M36.144 241V236.456H41.936V235.4H36.144V231.32H42.176V230.28H35.008V241H36.144ZM45.8135 241.16C47.3175 241.16 48.3255 240.44 48.7895 239.528L48.8695 239.544V241H49.9095V236.056C49.9095 234.296 48.9495 232.936 46.8375 232.936C44.7895 232.936 43.5255 234.248 43.5255 235.896V236.024H44.6295V235.784C44.6295 234.52 45.3015 233.96 46.7415 233.96C48.2295 233.96 48.8215 234.52 48.8215 235.912V236.488L46.0375 236.872C44.3095 237.112 43.2855 237.72 43.2855 239.096C43.2855 240.424 44.3735 241.16 45.8135 241.16ZM44.4055 239.016C44.4055 238.168 44.8695 237.912 46.1335 237.736L48.8215 237.352V237.624C48.8215 239.496 47.4935 240.2 46.1335 240.2C44.9175 240.2 44.4055 239.832 44.4055 239.016ZM54.5715 241L56.3635 236.008L56.9555 234.136H57.0515L57.6435 236.008L59.4195 241H60.9235L62.9555 233.096H61.7715L60.5235 238.248L60.2035 239.96H60.1075L59.6115 238.248L57.7715 233.096H56.2515L54.4435 238.248L53.9155 239.96H53.8195L53.4995 238.248L52.2515 233.096H51.0355L53.0675 241H54.5715ZM65.4299 241V235.768C65.4299 234.488 65.9419 233.928 67.1739 233.928C68.3099 233.928 68.6939 234.408 68.6939 235.64V235.912H69.8459V235.464C69.8459 234.104 69.2219 232.936 67.5899 232.936C66.4219 232.936 65.6539 233.592 65.3979 234.328H65.3179V233H64.2779V241H65.4299ZM72.405 243.72C73.269 243.72 74.021 243.464 74.533 242.264L78.389 233.096H77.141L75.397 237.496L74.613 239.432H74.517L73.685 237.496L71.829 233.096H70.581L73.973 240.888L73.525 241.912C73.237 242.536 72.997 242.68 72.277 242.68H71.381V243.608C71.605 243.656 72.021 243.72 72.405 243.72Z" fill="#131313"/>
<circle cx="350" cy="236" r="8.5" fill="white" stroke="#8E8EA9"/>
<rect x="24" y="285" width="345" height="60" rx="10" fill="#2E76DB"/>
<path d="M180.288 321V312.234H180.414L181.728 314.196L186.282 321H188.37V308.94H186.426V317.778H186.282L185.004 315.852L180.432 308.94H178.344V321H180.288ZM194.476 321.18C196.888 321.18 198.49 319.992 198.49 318.156V317.994H196.564V318.138C196.564 318.948 195.988 319.452 194.494 319.452C192.622 319.452 192.028 318.624 191.956 316.986H198.454C198.508 316.716 198.562 316.23 198.562 315.762C198.562 313.314 196.87 311.874 194.458 311.874C191.794 311.874 190.138 313.746 190.138 316.518C190.138 319.308 191.524 321.18 194.476 321.18ZM194.422 313.512C195.952 313.512 196.78 314.16 196.708 315.69H191.974C192.082 314.304 192.73 313.512 194.422 313.512ZM201.366 321L203.76 317.58H203.886L206.298 321H208.566L205.362 316.59V316.446L208.566 312.054H206.37L203.976 315.366H203.85L201.438 312.054H199.17L202.374 316.374V316.5L199.17 321H201.366ZM213.682 321C214.294 321 214.906 320.928 215.284 320.838V319.254H214.186C212.98 319.254 212.584 319.092 212.584 318.156V313.674H215.284V312.054H212.584V309.84H211.09L210.676 312.054H209.146V313.674H210.64V318.246C210.64 320.262 211.684 321 213.682 321Z" fill="white"/>
</g>
<defs>
<clipPath id="clip0_52_851">
<rect width="393" height="852" rx="40" fill="white"/>
</clipPath>
</defs>
</svg>
