<svg width="109" height="36" viewBox="0 0 109 36" fill="none" xmlns="http://www.w3.org/2000/svg">
<g clip-path="url(#clip0_1877_878)">
<path d="M51.2956 0H49.9585V35.3542H51.2956V0Z" fill="white"/>
<mask id="mask0_1877_878" style="mask-type:luminance" maskUnits="userSpaceOnUse" x="49" y="0" width="3" height="36">
<path d="M51.2956 0H49.9585V35.3542H51.2956V0Z" fill="white"/>
</mask>
<g mask="url(#mask0_1877_878)">
<path d="M50.6292 0C50.9844 0 51.2743 0.475205 51.2743 1.06027V34.2939C51.2743 34.879 50.9844 35.3542 50.6292 35.3542C50.274 35.3542 49.9841 34.879 49.9841 34.2939V1.06027C49.9841 0.475205 50.274 0 50.6292 0Z" fill="white"/>
</g>
<path d="M68.3229 18.8268H54.6464V0H68.3229V3.79142H59.5325V7.37078H67.7771V11.1367H59.5325V15.0354H68.3229V18.8268ZM70.9449 18.8268V0H78.7795C80.9079 0 82.7438 0.37301 84.282 1.12159C85.8176 1.87016 86.9954 2.95087 87.8128 4.36371C88.6328 5.78166 89.0428 7.4602 89.0428 9.39934C89.0428 11.3385 88.638 13.0451 87.8311 14.458C87.0189 15.8759 85.8463 16.9566 84.3107 17.7052C82.7699 18.4538 80.9262 18.8268 78.7795 18.8268H70.9449ZM75.9669 14.8744H78.4243C80.3177 14.8744 81.7279 14.4197 82.655 13.5127C83.5847 12.6031 84.047 11.2337 84.047 9.39934C84.047 7.56495 83.5847 6.1981 82.655 5.29623C81.7279 4.39948 80.3177 3.94982 78.4243 3.94982H75.9669V14.8719V14.8744ZM100.453 19.0669C97.6687 19.0669 95.5507 18.372 94.104 16.9847C92.6572 15.5949 91.9364 13.5663 91.9364 10.8965V0H96.8513V11.083C96.8513 12.4371 97.1621 13.4769 97.781 14.2076C98.3999 14.9383 99.2905 15.3036 100.455 15.3036C101.62 15.3036 102.513 14.9383 103.132 14.2076C103.751 13.4769 104.059 12.4371 104.059 11.083V0H109V10.8965C109 13.5484 108.266 15.5745 106.799 16.9694C105.336 18.3695 103.221 19.0695 100.455 19.0695L100.453 19.0669Z" fill="white"/>
<mask id="mask1_1877_878" style="mask-type:luminance" maskUnits="userSpaceOnUse" x="54" y="21" width="55" height="15">
<path d="M108.998 21.3766H54.6464V35.4947H108.998V21.3766Z" fill="white"/>
</mask>
<g mask="url(#mask1_1877_878)">
<path d="M61.7628 35.4334C60.3134 35.4334 59.052 35.1447 57.9787 34.5648C56.9027 33.9848 56.0801 33.1672 55.5082 32.1095C54.9336 31.0518 54.6464 29.828 54.6464 28.4356C54.6464 27.0432 54.9336 25.822 55.5082 24.7694C56.0801 23.7194 56.9027 22.9044 57.9787 22.3244C59.052 21.7444 60.3108 21.4557 61.7628 21.4557C62.6716 21.4557 63.5517 21.5912 64.403 21.862C65.2518 22.1328 65.9464 22.493 66.487 22.9452L65.3615 25.4592C64.215 24.6723 63.0424 24.2789 61.8437 24.2789C60.7103 24.2789 59.8433 24.6263 59.2479 25.3238C58.6472 26.0187 58.3469 27.056 58.3469 28.4356C58.3469 29.8153 58.6472 30.8551 59.2479 31.5551C59.8459 32.2603 60.7103 32.6103 61.8437 32.6103C63.0424 32.6103 64.215 32.2168 65.3615 31.4299L66.487 33.9439C65.9464 34.3961 65.2518 34.7564 64.403 35.0272C63.5517 35.298 62.6716 35.4334 61.7628 35.4334ZM82.4565 35.2597H78.8605L77.6148 32.4366H71.4489L70.2032 35.2597H66.5471L73.0498 21.6269H75.9355L82.4565 35.2597ZM74.5305 25.3979L72.6137 29.7667H76.4474L74.5305 25.3979ZM88.1079 35.4334C87.0659 35.4334 86.0396 35.298 85.0237 35.0272C84.0078 34.7564 83.1851 34.3961 82.5532 33.9439L83.6787 31.4299C84.3499 31.8413 85.0681 32.1581 85.8332 32.3778C86.5958 32.5975 87.3688 32.7074 88.1444 32.7074C88.9201 32.7074 89.539 32.6001 89.9542 32.3855C90.3695 32.1734 90.5758 31.8745 90.5758 31.4887C90.5758 31.1412 90.3877 30.8576 90.0143 30.6379C89.6382 30.4182 88.9227 30.201 87.8676 29.9813C86.5645 29.7105 85.5434 29.3886 84.8043 29.0156C84.0652 28.6426 83.5508 28.2031 83.2557 27.6998C82.9579 27.1965 82.8091 26.5783 82.8091 25.8425C82.8091 25.0045 83.0493 24.2533 83.5325 23.5891C84.013 22.9274 84.692 22.4036 85.5695 22.0229C86.4443 21.6448 87.4472 21.4557 88.5806 21.4557C89.5808 21.4557 90.5549 21.5937 91.4976 21.8696C92.4378 22.1481 93.1716 22.5058 93.6992 22.9452L92.5919 25.4592C91.3279 24.6085 89.996 24.1818 88.5989 24.1818C87.9277 24.1818 87.3871 24.307 86.9797 24.5574C86.5697 24.8103 86.366 25.1424 86.366 25.5537C86.366 25.799 86.4391 25.9983 86.5828 26.1541C86.729 26.31 86.998 26.4607 87.3923 26.6064C87.7867 26.7571 88.3743 26.9078 89.1499 27.0611C90.4139 27.3319 91.4089 27.6564 92.1349 28.0371C92.8583 28.4178 93.3727 28.8597 93.6757 29.3631C93.9786 29.8664 94.1301 30.4642 94.1301 31.1617C94.1301 32.503 93.6025 33.5479 92.5501 34.3016C91.495 35.0578 90.0143 35.4334 88.1027 35.4334H88.1079ZM105.441 26.9257V21.6269H108.998V35.2597H105.441V29.7488H99.7475V35.2597H96.1906V21.6269H99.7475V26.9257H105.441Z" fill="#2E76DB"/>
</g>
<path d="M10.1954 6.71674H20.4355V35.5663H18.5734L10.1954 6.71674Z" fill="white"/>
<path d="M0 14.5397H9.73079L15.7819 35.5663L0 14.5397Z" fill="white"/>
<path d="M46.9903 0.205307H22.8749V36H46.9903V0.205307Z" fill="white"/>
</g>
<defs>
<clipPath id="clip0_1877_878">
<rect width="109" height="36" fill="white"/>
</clipPath>
</defs>
</svg>
