<svg width="49" height="49" viewBox="0 0 49 49" fill="none" xmlns="http://www.w3.org/2000/svg">
<g clip-path="url(#clip0_1862_717)">
<path d="M24.5 48.5C37.7548 48.5 48.5 37.7548 48.5 24.5C48.5 11.2452 37.7548 0.5 24.5 0.5C11.2452 0.5 0.5 11.2452 0.5 24.5C0.5 37.7548 11.2452 48.5 24.5 48.5Z" fill="#2E76DB"/>
<path d="M28.911 25.4904L29.378 22.5937H26.459V20.7208C26.459 19.9297 26.867 19.1586 28.174 19.1586H29.501V16.7004C28.7216 16.5792 27.9347 16.5125 27.146 16.5006C26.6174 16.4475 26.0835 16.5111 25.5822 16.687C25.0809 16.8628 24.6245 17.1467 24.2453 17.5184C23.8661 17.8902 23.5734 18.3406 23.3879 18.838C23.2024 19.3353 23.1287 19.8673 23.172 20.3962V22.5937H20.5V25.4904H23.172V32.4824H26.459V25.4904H28.911Z" fill="white"/>
</g>
<defs>
<clipPath id="clip0_1862_717">
<rect width="49" height="49" fill="white"/>
</clipPath>
</defs>
</svg>
