<svg width="49" height="49" viewBox="0 0 49 49" fill="none" xmlns="http://www.w3.org/2000/svg">
<g clip-path="url(#clip0_1862_721)">
<path d="M24.5 48.5C37.7548 48.5 48.5 37.7548 48.5 24.5C48.5 11.2452 37.7548 0.5 24.5 0.5C11.2452 0.5 0.5 11.2452 0.5 24.5C0.5 37.7548 11.2452 48.5 24.5 48.5Z" fill="#2E76DB"/>
<path d="M24.5052 20.3973C23.6943 20.3973 22.9017 20.6378 22.2274 21.0883C21.5532 21.5388 21.0277 22.1792 20.7173 22.9283C20.407 23.6775 20.3258 24.5019 20.484 25.2972C20.6422 26.0925 21.0327 26.8231 21.6061 27.3965C22.1795 27.9699 22.9101 28.3604 23.7054 28.5186C24.5007 28.6768 25.3251 28.5956 26.0743 28.2852C26.8234 27.9749 27.4638 27.4494 27.9143 26.7752C28.3648 26.1009 28.6053 25.3082 28.6053 24.4973C28.6053 23.9589 28.4992 23.4258 28.2932 22.9283C28.0871 22.4309 27.7851 21.9789 27.4044 21.5982C27.0237 21.2175 26.5717 20.9155 26.0743 20.7094C25.5768 20.5034 25.0437 20.3973 24.5052 20.3973ZM24.5052 27.1623C23.9777 27.1625 23.462 27.0063 23.0233 26.7134C22.5846 26.4204 22.2426 26.004 22.0406 25.5167C21.8385 25.0293 21.7856 24.4931 21.8884 23.9757C21.9912 23.4582 22.2451 22.9829 22.618 22.6098C22.991 22.2368 23.4662 21.9827 23.9836 21.8797C24.501 21.7767 25.0372 21.8294 25.5246 22.0313C26.012 22.2331 26.4286 22.5749 26.7217 23.0135C27.0148 23.4521 27.1713 23.9678 27.1713 24.4953C27.1699 25.2021 26.8887 25.8795 26.389 26.3794C25.8893 26.8792 25.212 27.1608 24.5052 27.1623ZM29.7312 20.2253C29.7312 20.4146 29.6751 20.5996 29.57 20.757C29.4648 20.9144 29.3153 21.0371 29.1405 21.1095C28.9656 21.1819 28.7732 21.2009 28.5875 21.164C28.4019 21.127 28.2314 21.0359 28.0975 20.902C27.9637 20.7682 27.8726 20.5977 27.8356 20.412C27.7987 20.2264 27.8177 20.034 27.8901 19.8591C27.9625 19.6842 28.0852 19.5348 28.2426 19.4296C28.3999 19.3245 28.585 19.2683 28.7743 19.2683C28.9001 19.2685 29.0247 19.2935 29.1409 19.342C29.257 19.3905 29.3624 19.4615 29.451 19.5509C29.5396 19.6404 29.6096 19.7464 29.657 19.863C29.7044 19.9796 29.7283 20.1045 29.7273 20.2303L29.7312 20.2253ZM32.4473 21.1963C32.4735 19.9527 32.0094 18.7486 31.1552 17.8443C30.2493 16.9929 29.0464 16.5292 27.8033 16.5523C26.4823 16.4773 22.5243 16.4773 21.2032 16.5523C19.9588 16.5279 18.7544 16.9921 17.8483 17.8453C16.9955 18.7505 16.5316 19.954 16.5563 21.1973C16.4812 22.5183 16.4812 26.4773 16.5563 27.7973C16.53 29.041 16.9941 30.245 17.8483 31.1493C18.7546 32.0003 19.9573 32.4638 21.2003 32.4413C22.5213 32.5163 26.4792 32.5163 27.8003 32.4413C29.044 32.4679 30.2481 32.0038 31.1523 31.1493C32.0036 30.2432 32.4672 29.0404 32.4443 27.7973C32.5193 26.4763 32.5193 22.5203 32.4443 21.1973L32.4473 21.1963ZM30.7413 29.2113C30.6055 29.5556 30.4004 29.8682 30.1388 30.1298C29.8771 30.3915 29.5645 30.5966 29.2203 30.7323C28.1643 31.1553 25.6652 31.0623 24.5052 31.0623C23.3453 31.0623 20.8393 31.1553 19.7903 30.7413C19.446 30.6056 19.1334 30.4005 18.8717 30.1388C18.6101 29.8772 18.405 29.5646 18.2693 29.2203C17.8513 28.1673 17.9482 25.6683 17.9482 24.5043C17.9482 23.3403 17.8553 20.8373 18.2693 19.7883C18.404 19.4436 18.6082 19.1302 18.8692 18.8677C19.1301 18.6052 19.4423 18.3991 19.7862 18.2623C20.8392 17.8453 23.3383 17.9413 24.5052 17.9413C25.6722 17.9413 28.1713 17.8483 29.2203 18.2623C29.5645 18.3981 29.8771 18.6032 30.1388 18.8648C30.4004 19.1265 30.6055 19.4391 30.7413 19.7833C31.1593 20.8363 31.0623 23.3353 31.0623 24.4993C31.0623 25.6633 31.1553 28.1623 30.7373 29.2163L30.7413 29.2113Z" fill="white"/>
</g>
<defs>
<clipPath id="clip0_1862_721">
<rect width="49" height="49" fill="white"/>
</clipPath>
</defs>
</svg>
