<svg width="49" height="49" viewBox="0 0 49 49" fill="none" xmlns="http://www.w3.org/2000/svg">
<g clip-path="url(#clip0_1862_737)">
<path d="M24.5 48.5C37.7548 48.5 48.5 37.7548 48.5 24.5C48.5 11.2452 37.7548 0.5 24.5 0.5C11.2452 0.5 0.5 11.2452 0.5 24.5C0.5 37.7548 11.2452 48.5 24.5 48.5Z" fill="#2E76DB"/>
<path d="M19.5949 32.999H16.2817V22.317H19.5949V32.999ZM17.9368 20.86C17.5555 20.8618 17.1823 20.7503 16.8643 20.5397C16.5462 20.3291 16.2978 20.0289 16.1502 19.6769C16.0027 19.3249 15.9627 18.937 16.0353 18.5623C16.108 18.1876 16.29 17.8428 16.5583 17.5717C16.8267 17.3005 17.1693 17.1151 17.5429 17.0389C17.9165 16.9626 18.3043 16.9991 18.6573 17.1435C19.0102 17.2879 19.3124 17.5339 19.5257 17.8503C19.7391 18.1667 19.8539 18.5393 19.8556 18.921C19.8562 19.4323 19.6548 19.9231 19.2953 20.2863C18.9359 20.6495 18.4475 20.8558 17.9368 20.86ZM32 32.999H28.6937V27.799C28.6937 26.56 28.6687 24.97 26.9707 24.97C25.2476 24.97 24.9839 26.316 24.9839 27.709V32.999H21.6706V22.317H24.849V23.774H24.895C25.2128 23.2294 25.6723 22.7813 26.2245 22.4775C26.7767 22.1737 27.4008 22.0256 28.0305 22.049C31.3837 22.049 32 24.26 32 27.132V32.999Z" fill="white"/>
</g>
<defs>
<clipPath id="clip0_1862_737">
<rect width="49" height="49" fill="white"/>
</clipPath>
</defs>
</svg>
