<svg width="49" height="49" viewBox="0 0 49 49" fill="none" xmlns="http://www.w3.org/2000/svg">
<g clip-path="url(#clip0_1862_725)">
<path d="M24.5 48.5C37.7548 48.5 48.5 37.7548 48.5 24.5C48.5 11.2452 37.7548 0.5 24.5 0.5C11.2452 0.5 0.5 11.2452 0.5 24.5C0.5 37.7548 11.2452 48.5 24.5 48.5Z" fill="#2E76DB"/>
<path d="M32.944 20.9875C32.957 21.1625 32.957 21.3375 32.957 21.5125C32.9568 23.0356 32.6537 24.5434 32.0653 25.9484C31.4769 27.3533 30.615 28.6272 29.5297 29.696C28.4444 30.7649 27.1574 31.6073 25.7436 32.1743C24.3297 32.7413 22.8172 33.0215 21.294 32.9987C19.0663 33.0053 16.8829 32.3764 15 31.186C15.3288 31.2217 15.6593 31.2383 15.99 31.236C17.8308 31.242 19.6213 30.6352 21.079 29.5112C20.2286 29.4997 19.4028 29.2241 18.7161 28.7225C18.0293 28.2209 17.5156 27.5182 17.246 26.7117C17.5021 26.7514 17.7608 26.7721 18.02 26.7737C18.3843 26.7729 18.7471 26.7269 19.1 26.6367C18.1779 26.4593 17.346 25.9673 16.7463 25.2449C16.1466 24.5224 15.8164 23.6141 15.812 22.6753V22.6253C16.3814 22.9377 17.0159 23.113 17.665 23.1372C17.105 22.7729 16.6447 22.2747 16.3257 21.6878C16.0067 21.1009 15.8391 20.4437 15.838 19.7757C15.8372 19.0581 16.0315 18.3538 16.4 17.738C17.4376 18.99 18.7247 20.0123 20.1791 20.7396C21.6336 21.4669 23.2237 21.8833 24.848 21.9624C24.7827 21.6584 24.7492 21.3484 24.748 21.0375C24.7518 20.5032 24.8609 19.9748 25.069 19.4826C25.2772 18.9905 25.5803 18.5442 25.9611 18.1692C26.3419 17.7942 26.7928 17.498 27.2882 17.2974C27.7835 17.0968 28.3136 16.9958 28.848 17.0001C29.4072 16.9985 29.9609 17.1108 30.4753 17.3302C30.9897 17.5495 31.4541 17.8713 31.84 18.2759C32.7561 18.1022 33.6355 17.7724 34.44 17.3011C34.1318 18.2375 33.4915 19.0288 32.64 19.5258C33.4531 19.4347 34.2484 19.2241 35 18.9008C34.437 19.7071 33.7419 20.4126 32.944 20.9875Z" fill="white"/>
</g>
<defs>
<clipPath id="clip0_1862_725">
<rect width="49" height="49" fill="white"/>
</clipPath>
</defs>
</svg>
